<svg width="250" xmlns="http://www.w3.org/2000/svg" height="250" id="screenshot-a096782a-7c1e-80c4-8005-d79d7f749c49" viewBox="0 0 250 250" xmlns:xlink="http://www.w3.org/1999/xlink" fill="none" version="1.1"><g id="shape-a096782a-7c1e-80c4-8005-d79d7f749c49"><defs><clipPath id="frame-clip-a096782a-7c1e-80c4-8005-d79d7f749c49-render-1" class="frame-clip frame-clip-def"><rect rx="0" ry="0" x="0" y="0" width="250" height="250" transform="matrix(1.000000, 0.000000, 0.000000, 1.000000, 0.000000, 0.000000)"/></clipPath></defs><g><g><g clip-path="url(#frame-clip-a096782a-7c1e-80c4-8005-d79d7f749c49-render-1)" fill="none"><g class="fills" id="fills-a096782a-7c1e-80c4-8005-d79d7f749c49"><rect rx="0" ry="0" x="0" y="0" width="250" height="250" transform="matrix(1.000000, 0.000000, 0.000000, 1.000000, 0.000000, 0.000000)" class="frame-background"/></g><g class="frame-children"><g id="shape-a096782a-7c1e-80c4-8005-d79d7f749c4a" width="160" height="160" rx="0" ry="0" style="fill: rgb(0, 0, 0);"><g id="shape-a096782a-7c1e-80c4-8005-d79d7f749c4d" style="display: none;"><g class="fills" id="fills-a096782a-7c1e-80c4-8005-d79d7f749c4d"><rect width="120" height="120" x="65" transform="matrix(1.000000, 0.000000, 0.000000, 1.000000, 0.000000, 0.000000)" style="fill: rgb(43, 146, 224); fill-opacity: 1;" ry="0" fill="none" rx="0" y="65"/></g></g><g id="shape-a096782a-7c1e-80c4-8005-d79d7f749c4e"><g class="fills" id="fills-a096782a-7c1e-80c4-8005-d79d7f749c4e"><path d="M125.000,65.000L176.962,95.000L176.962,155.000L125.000,185.000L73.038,155.000L73.038,95.000Z" style="fill: rgb(43, 146, 224); fill-opacity: 1;"/></g></g></g><g id="shape-a096782a-7c1e-80c4-8005-d7a10cd3b2ec"><g class="fills" id="fills-a096782a-7c1e-80c4-8005-d7a10cd3b2ec"><rect rx="0" ry="0" x="213" y="80" transform="matrix(1.000000, 0.000000, 0.000000, 1.000000, 0.000000, 0.000000)" width="12" height="90" style="fill: rgb(49, 222, 185); fill-opacity: 1;"/></g></g><g id="shape-a096782a-7c1e-80c4-8005-d7c5983284b7"><g class="fills" id="fills-a096782a-7c1e-80c4-8005-d7c5983284b7"><rect rx="0" ry="0" x="25" y="81" transform="matrix(1.000000, 0.000000, 0.000000, 1.000000, 0.000000, 0.000000)" width="12" height="90" style="fill: rgb(49, 222, 185); fill-opacity: 1;"/></g></g><g id="shape-a096782a-7c1e-80c4-8005-d79e4e5af04b"><g class="fills" id="fills-a096782a-7c1e-80c4-8005-d79e4e5af04b"><rect rx="0" ry="0" x="189" y="95" transform="matrix(1.000000, 0.000000, 0.000000, 1.000000, 0.000000, 0.000000)" width="12" height="60" style="fill: rgb(225, 122, 42); fill-opacity: 1;"/></g></g><g id="shape-a096782a-7c1e-80c4-8005-d7c58d0928c7"><g class="fills" id="fills-a096782a-7c1e-80c4-8005-d7c58d0928c7"><rect rx="0" ry="0" x="49" y="95" transform="matrix(1.000000, 0.000000, 0.000000, 1.000000, 0.000000, 0.000000)" width="12" height="60" style="fill: rgb(225, 122, 42); fill-opacity: 1;"/></g></g></g></g></g></g></g></svg>